<?xml version="1.0" encoding="iso-8859-1"?>
<!-- Generator: Adobe Illustrator 19.2.0, SVG Export Plug-In . SVG Version: 6.00 Build 0)  -->
<svg version="1.1" id="Livello_1" xmlns="http://www.w3.org/2000/svg" xmlns:xlink="http://www.w3.org/1999/xlink" x="0px" y="0px"
	 viewBox="0 0 1024 768" style="enable-background:new 0 0 1024 768;" xml:space="preserve">
<g>
	<rect x="191.803" y="163.5" style="fill:#FFFFFF;stroke:#2C3E51;stroke-miterlimit:10;" width="640.393" height="220"/>
	<g>
		<g>
			<path style="fill:#2C3E51;" d="M276.375,228.668h8.589v38.867h0.22c0.587-1.027,1.394-2.037,2.423-3.028
				c1.026-0.991,2.257-1.889,3.688-2.697c1.431-0.807,3.027-1.468,4.789-1.982c1.762-0.513,3.634-0.771,5.615-0.771
				c3.376,0,6.294,0.515,8.754,1.542c2.458,1.028,4.495,2.46,6.11,4.294c1.614,1.835,2.808,4.057,3.579,6.661
				c0.771,2.606,1.155,5.45,1.155,8.533v31.82h-8.588v-30.939c0-4.33-0.955-7.743-2.862-10.24c-1.91-2.494-4.883-3.743-8.919-3.743
				c-2.79,0-5.193,0.479-7.212,1.432c-2.02,0.954-3.671,2.312-4.955,4.073c-1.285,1.762-2.239,3.854-2.862,6.276
				c-0.624,2.422-0.936,5.103-0.936,8.037v25.104h-8.589V228.668z"/>
			<path style="fill:#2C3E51;" d="M336.934,266.984c2.643-2.715,5.78-4.716,9.414-6.001c3.633-1.283,7.322-1.927,11.065-1.927
				c7.634,0,13.139,1.8,16.516,5.396c3.376,3.597,5.065,9.066,5.065,16.405v22.131c0,1.47,0.072,2.992,0.22,4.569
				c0.146,1.58,0.33,3.028,0.551,4.35h-8.258c-0.295-1.173-0.46-2.478-0.496-3.909c-0.037-1.431-0.055-2.697-0.055-3.798h-0.221
				c-1.689,2.643-3.946,4.809-6.771,6.496c-2.826,1.688-6.221,2.532-10.185,2.532c-2.643,0-5.12-0.33-7.432-0.991
				c-2.312-0.66-4.332-1.633-6.056-2.918c-1.726-1.283-3.103-2.88-4.129-4.789c-1.029-1.908-1.542-4.11-1.542-6.606
				c0-4.256,1.102-7.598,3.304-10.02s4.936-4.22,8.202-5.396c3.266-1.173,6.789-1.907,10.57-2.202
				c3.78-0.292,7.248-0.44,10.405-0.44h3.303v-1.541c0-3.744-1.12-6.568-3.358-8.479c-2.239-1.907-5.378-2.862-9.414-2.862
				c-2.79,0-5.523,0.459-8.202,1.376c-2.681,0.919-5.048,2.331-7.103,4.239L336.934,266.984z M361.818,287.134
				c-5.506,0-9.873,0.771-13.103,2.312c-3.231,1.542-4.845,4.074-4.845,7.598c0,3.23,1.082,5.524,3.248,6.882
				c2.164,1.359,4.862,2.037,8.093,2.037c2.494,0,4.68-0.422,6.551-1.267c1.872-0.843,3.431-1.963,4.68-3.358
				c1.247-1.394,2.202-3.027,2.863-4.899c0.66-1.872,1.026-3.871,1.101-6.001v-3.303H361.818z"/>
			<path style="fill:#2C3E51;" d="M447.809,228.668h8.589v54.392l23.452-22.682h12.222l-24.884,23.452l27.416,28.077h-12.662
				l-25.544-27.086v27.086h-8.589V228.668z"/>
			<path style="fill:#2C3E51;" d="M502.862,272.6c0-2.349-0.073-4.551-0.22-6.606c-0.148-2.054-0.221-3.926-0.221-5.615h8.148
				c0,1.396,0.036,2.79,0.109,4.184c0.072,1.396,0.11,2.827,0.11,4.295h0.221c0.586-1.248,1.412-2.459,2.478-3.634
				c1.062-1.174,2.329-2.22,3.798-3.138c1.468-0.917,3.119-1.652,4.955-2.202c1.834-0.551,3.815-0.826,5.945-0.826
				c3.376,0,6.294,0.515,8.754,1.542c2.458,1.028,4.495,2.46,6.11,4.294c1.614,1.835,2.808,4.057,3.579,6.661
				c0.771,2.606,1.155,5.45,1.155,8.533v31.82h-8.588v-30.939c0-4.33-0.955-7.743-2.862-10.24c-1.91-2.494-4.883-3.743-8.919-3.743
				c-2.79,0-5.193,0.479-7.212,1.432c-2.02,0.954-3.671,2.312-4.955,4.073c-1.285,1.762-2.239,3.854-2.862,6.276
				c-0.624,2.422-0.936,5.103-0.936,8.037v25.104h-8.589V272.6z"/>
			<path style="fill:#2C3E51;" d="M562.869,240.229c0-1.688,0.605-3.155,1.816-4.404c1.212-1.247,2.698-1.871,4.46-1.871
				s3.248,0.624,4.459,1.871c1.211,1.249,1.816,2.717,1.816,4.404c0,1.836-0.588,3.341-1.762,4.515
				c-1.175,1.175-2.68,1.762-4.514,1.762c-1.836,0-3.341-0.587-4.515-1.762C563.456,243.569,562.869,242.064,562.869,240.229z
				 M564.851,260.378h8.588v51.529h-8.588V260.378z"/>
			<path style="fill:#2C3E51;" d="M641.924,309.595c0,9.396-2.405,16.533-7.212,21.416c-4.809,4.881-11.765,7.321-20.865,7.321
				c-5.065,0-9.635-0.734-13.708-2.201c-4.074-1.47-7.946-4.002-11.616-7.598l6.166-7.047c2.715,2.935,5.597,5.156,8.643,6.661
				c3.046,1.504,6.552,2.258,10.516,2.258c3.815,0,6.991-0.569,9.524-1.707c2.532-1.139,4.531-2.681,6-4.624
				c1.468-1.946,2.495-4.167,3.083-6.662c0.587-2.496,0.881-5.103,0.881-7.817v-6.606h-0.22c-2.056,3.304-4.734,5.726-8.038,7.268
				c-3.303,1.541-6.68,2.312-10.13,2.312c-4.037,0-7.745-0.66-11.12-1.981c-3.377-1.321-6.276-3.155-8.698-5.505
				c-2.423-2.349-4.294-5.138-5.615-8.368c-1.321-3.229-1.982-6.753-1.982-10.57c0-4.184,0.661-7.964,1.982-11.341
				c1.321-3.375,3.174-6.221,5.56-8.533c2.385-2.312,5.267-4.091,8.644-5.34c3.376-1.247,7.119-1.872,11.23-1.872
				c1.762,0,3.523,0.203,5.285,0.605c1.762,0.404,3.469,1.029,5.12,1.872c1.651,0.845,3.138,1.909,4.459,3.193
				c1.321,1.285,2.423,2.771,3.304,4.459h0.22v-8.809h8.589V309.595z M596.781,286.143c0,2.643,0.477,5.084,1.432,7.322
				c0.953,2.239,2.257,4.184,3.908,5.835c1.651,1.652,3.579,2.956,5.78,3.909c2.202,0.955,4.551,1.432,7.047,1.432
				c2.936,0,5.542-0.513,7.817-1.542c2.274-1.027,4.201-2.403,5.781-4.129c1.577-1.724,2.77-3.706,3.578-5.945
				c0.807-2.238,1.211-4.605,1.211-7.102c0-2.789-0.44-5.341-1.321-7.652c-0.881-2.312-2.13-4.312-3.743-6.001
				c-1.615-1.688-3.562-2.99-5.836-3.909c-2.275-0.917-4.772-1.376-7.487-1.376c-2.716,0-5.193,0.495-7.432,1.486
				c-2.24,0.991-4.148,2.35-5.726,4.074c-1.579,1.726-2.808,3.743-3.688,6.056C597.221,280.912,596.781,283.428,596.781,286.143z"/>
			<path style="fill:#2C3E51;" d="M657.778,228.668h8.589v38.867h0.22c0.587-1.027,1.394-2.037,2.423-3.028
				c1.026-0.991,2.257-1.889,3.688-2.697c1.431-0.807,3.027-1.468,4.789-1.982c1.762-0.513,3.634-0.771,5.615-0.771
				c3.376,0,6.294,0.515,8.754,1.542c2.458,1.028,4.495,2.46,6.11,4.294c1.614,1.835,2.808,4.057,3.579,6.661
				c0.771,2.606,1.155,5.45,1.155,8.533v31.82h-8.588v-30.939c0-4.33-0.955-7.743-2.862-10.24c-1.91-2.494-4.883-3.743-8.919-3.743
				c-2.79,0-5.193,0.479-7.212,1.432c-2.02,0.954-3.671,2.312-4.955,4.073c-1.285,1.762-2.239,3.854-2.862,6.276
				c-0.624,2.422-0.936,5.103-0.936,8.037v25.104h-8.589V228.668z"/>
			<path style="fill:#2C3E51;" d="M747.184,267.645H731.99v25.765c0,1.689,0.036,3.248,0.109,4.68
				c0.072,1.432,0.367,2.681,0.881,3.744c0.513,1.064,1.284,1.909,2.312,2.532c1.027,0.624,2.494,0.936,4.404,0.936
				c1.247,0,2.532-0.146,3.854-0.44c1.321-0.292,2.568-0.732,3.744-1.321l0.33,7.817c-1.47,0.661-3.103,1.138-4.9,1.432
				c-1.799,0.292-3.506,0.44-5.119,0.44c-3.083,0-5.543-0.404-7.377-1.211c-1.836-0.807-3.268-1.944-4.295-3.413
				c-1.028-1.468-1.706-3.284-2.036-5.45c-0.331-2.165-0.496-4.569-0.496-7.212v-28.298h-11.23v-7.267h11.23v-14.644h8.589v14.644
				h15.194V267.645z"/>
		</g>
		<path style="fill:#2C3E51;" d="M429.703,306.64c-16.409,0-29.712-13.302-29.712-29.712c0-8.31,3.415-15.819,8.914-21.211
			c-11.402,4.152-19.545,15.087-19.545,27.925c0,16.409,13.302,29.712,29.712,29.712c8.1,0,15.438-3.245,20.798-8.501
			C436.698,306.009,433.275,306.64,429.703,306.64z"/>
		<path style="fill:#2C3E51;" d="M428.672,259.122l7.591-2.566l1.016,3.101l-7.538,2.566l4.758,6.362l-2.62,2.032l-4.811-6.576
			l-4.651,6.576l-2.673-2.032l4.651-6.362l-7.538-2.566l1.016-3.101l7.591,2.566v-7.965h3.207V259.122z"/>
	</g>
	<rect x="191.803" y="384.5" style="fill:#2C3E51;stroke:#333366;stroke-miterlimit:10;" width="640.393" height="220"/>
	<g>
		<g>
			<path style="fill:#FFFFFF;" d="M276.375,449.668h8.589v38.867h0.22c0.587-1.027,1.394-2.037,2.423-3.028
				c1.026-0.991,2.257-1.889,3.688-2.697c1.431-0.807,3.027-1.468,4.789-1.982c1.762-0.513,3.634-0.771,5.615-0.771
				c3.376,0,6.294,0.515,8.754,1.542c2.458,1.028,4.495,2.46,6.11,4.294c1.614,1.835,2.808,4.057,3.579,6.661
				c0.771,2.606,1.155,5.45,1.155,8.533v31.82h-8.588v-30.939c0-4.33-0.955-7.743-2.862-10.24c-1.91-2.494-4.883-3.743-8.919-3.743
				c-2.79,0-5.193,0.479-7.212,1.432c-2.02,0.954-3.671,2.312-4.955,4.073c-1.285,1.762-2.239,3.854-2.862,6.276
				c-0.624,2.422-0.936,5.103-0.936,8.037v25.104h-8.589V449.668z"/>
			<path style="fill:#FFFFFF;" d="M336.934,487.984c2.643-2.715,5.78-4.716,9.414-6.001c3.633-1.283,7.322-1.927,11.065-1.927
				c7.634,0,13.139,1.8,16.516,5.396c3.376,3.597,5.065,9.066,5.065,16.405v22.131c0,1.47,0.072,2.992,0.22,4.569
				c0.146,1.58,0.33,3.028,0.551,4.35h-8.258c-0.295-1.173-0.46-2.478-0.496-3.909c-0.037-1.431-0.055-2.697-0.055-3.798h-0.221
				c-1.689,2.643-3.946,4.809-6.771,6.496c-2.826,1.688-6.221,2.532-10.185,2.532c-2.643,0-5.12-0.33-7.432-0.991
				c-2.312-0.66-4.332-1.633-6.056-2.918c-1.726-1.283-3.103-2.88-4.129-4.789c-1.029-1.908-1.542-4.11-1.542-6.606
				c0-4.256,1.102-7.598,3.304-10.02s4.936-4.22,8.202-5.396c3.266-1.173,6.789-1.907,10.57-2.202
				c3.78-0.292,7.248-0.44,10.405-0.44h3.303v-1.541c0-3.744-1.12-6.568-3.358-8.479c-2.239-1.907-5.378-2.862-9.414-2.862
				c-2.79,0-5.523,0.459-8.202,1.376c-2.681,0.919-5.048,2.331-7.103,4.239L336.934,487.984z M361.818,508.134
				c-5.506,0-9.873,0.771-13.103,2.312c-3.231,1.542-4.845,4.074-4.845,7.598c0,3.23,1.082,5.524,3.248,6.882
				c2.164,1.359,4.862,2.037,8.093,2.037c2.494,0,4.68-0.422,6.551-1.267c1.872-0.843,3.431-1.963,4.68-3.358
				c1.247-1.394,2.202-3.027,2.863-4.899c0.66-1.872,1.026-3.871,1.101-6.001v-3.303H361.818z"/>
			<path style="fill:#FFFFFF;" d="M447.809,449.668h8.589v54.392l23.452-22.682h12.222l-24.884,23.452l27.416,28.077h-12.662
				l-25.544-27.086v27.086h-8.589V449.668z"/>
			<path style="fill:#FFFFFF;" d="M502.862,493.6c0-2.349-0.073-4.551-0.22-6.606c-0.148-2.054-0.221-3.926-0.221-5.615h8.148
				c0,1.396,0.036,2.79,0.109,4.184c0.072,1.396,0.11,2.827,0.11,4.295h0.221c0.586-1.248,1.412-2.459,2.478-3.634
				c1.062-1.174,2.329-2.22,3.798-3.138c1.468-0.917,3.119-1.652,4.955-2.202c1.834-0.551,3.815-0.826,5.945-0.826
				c3.376,0,6.294,0.515,8.754,1.542c2.458,1.028,4.495,2.46,6.11,4.294c1.614,1.835,2.808,4.057,3.579,6.661
				c0.771,2.606,1.155,5.45,1.155,8.533v31.82h-8.588v-30.939c0-4.33-0.955-7.743-2.862-10.24c-1.91-2.494-4.883-3.743-8.919-3.743
				c-2.79,0-5.193,0.479-7.212,1.432c-2.02,0.954-3.671,2.312-4.955,4.073c-1.285,1.762-2.239,3.854-2.862,6.276
				c-0.624,2.422-0.936,5.103-0.936,8.037v25.104h-8.589V493.6z"/>
			<path style="fill:#FFFFFF;" d="M562.869,461.229c0-1.688,0.605-3.155,1.816-4.404c1.212-1.247,2.698-1.871,4.46-1.871
				s3.248,0.624,4.459,1.871c1.211,1.249,1.816,2.717,1.816,4.404c0,1.836-0.588,3.341-1.762,4.515
				c-1.175,1.175-2.68,1.762-4.514,1.762c-1.836,0-3.341-0.587-4.515-1.762C563.456,464.569,562.869,463.064,562.869,461.229z
				 M564.851,481.378h8.588v51.529h-8.588V481.378z"/>
			<path style="fill:#FFFFFF;" d="M641.924,530.595c0,9.396-2.405,16.533-7.212,21.416c-4.809,4.881-11.765,7.321-20.865,7.321
				c-5.065,0-9.635-0.734-13.708-2.201c-4.074-1.47-7.946-4.002-11.616-7.598l6.166-7.047c2.715,2.935,5.597,5.156,8.643,6.661
				c3.046,1.504,6.552,2.258,10.516,2.258c3.815,0,6.991-0.569,9.524-1.707c2.532-1.139,4.531-2.681,6-4.624
				c1.468-1.946,2.495-4.167,3.083-6.662c0.587-2.496,0.881-5.103,0.881-7.817v-6.606h-0.22c-2.056,3.304-4.734,5.726-8.038,7.268
				c-3.303,1.541-6.68,2.312-10.13,2.312c-4.037,0-7.745-0.66-11.12-1.981c-3.377-1.321-6.276-3.155-8.698-5.505
				c-2.423-2.349-4.294-5.138-5.615-8.368c-1.321-3.229-1.982-6.753-1.982-10.57c0-4.184,0.661-7.964,1.982-11.341
				c1.321-3.375,3.174-6.221,5.56-8.533c2.385-2.312,5.267-4.091,8.644-5.34c3.376-1.247,7.119-1.872,11.23-1.872
				c1.762,0,3.523,0.203,5.285,0.605c1.762,0.404,3.469,1.029,5.12,1.872c1.651,0.845,3.138,1.909,4.459,3.193
				c1.321,1.285,2.423,2.771,3.304,4.459h0.22v-8.809h8.589V530.595z M596.781,507.143c0,2.643,0.477,5.084,1.432,7.322
				c0.953,2.239,2.257,4.184,3.908,5.835c1.651,1.652,3.579,2.956,5.78,3.909c2.202,0.955,4.551,1.432,7.047,1.432
				c2.936,0,5.542-0.513,7.817-1.542c2.274-1.027,4.201-2.403,5.781-4.129c1.577-1.724,2.77-3.706,3.578-5.945
				c0.807-2.238,1.211-4.605,1.211-7.102c0-2.789-0.44-5.341-1.321-7.652c-0.881-2.312-2.13-4.312-3.743-6.001
				c-1.615-1.688-3.562-2.99-5.836-3.909c-2.275-0.917-4.772-1.376-7.487-1.376c-2.716,0-5.193,0.495-7.432,1.486
				c-2.24,0.991-4.148,2.35-5.726,4.074c-1.579,1.726-2.808,3.743-3.688,6.056C597.221,501.912,596.781,504.428,596.781,507.143z"/>
			<path style="fill:#FFFFFF;" d="M657.778,449.668h8.589v38.867h0.22c0.587-1.027,1.394-2.037,2.423-3.028
				c1.026-0.991,2.257-1.889,3.688-2.697c1.431-0.807,3.027-1.468,4.789-1.982c1.762-0.513,3.634-0.771,5.615-0.771
				c3.376,0,6.294,0.515,8.754,1.542c2.458,1.028,4.495,2.46,6.11,4.294c1.614,1.835,2.808,4.057,3.579,6.661
				c0.771,2.606,1.155,5.45,1.155,8.533v31.82h-8.588v-30.939c0-4.33-0.955-7.743-2.862-10.24c-1.91-2.494-4.883-3.743-8.919-3.743
				c-2.79,0-5.193,0.479-7.212,1.432c-2.02,0.954-3.671,2.312-4.955,4.073c-1.285,1.762-2.239,3.854-2.862,6.276
				c-0.624,2.422-0.936,5.103-0.936,8.037v25.104h-8.589V449.668z"/>
			<path style="fill:#FFFFFF;" d="M747.184,488.645H731.99v25.765c0,1.689,0.036,3.248,0.109,4.68
				c0.072,1.432,0.367,2.681,0.881,3.744c0.513,1.064,1.284,1.909,2.312,2.532c1.027,0.624,2.494,0.936,4.404,0.936
				c1.247,0,2.532-0.146,3.854-0.44c1.321-0.292,2.568-0.732,3.744-1.321l0.33,7.817c-1.47,0.661-3.103,1.138-4.9,1.432
				c-1.799,0.292-3.506,0.44-5.119,0.44c-3.083,0-5.543-0.404-7.377-1.211c-1.836-0.807-3.268-1.944-4.295-3.413
				c-1.028-1.468-1.706-3.284-2.036-5.45c-0.331-2.165-0.496-4.569-0.496-7.212v-28.298h-11.23v-7.267h11.23v-14.644h8.589v14.644
				h15.194V488.645z"/>
		</g>
		<path style="fill:#FFFFFF;" d="M429.703,527.64c-16.409,0-29.712-13.302-29.712-29.712c0-8.31,3.415-15.819,8.914-21.211
			c-11.402,4.152-19.545,15.087-19.545,27.925c0,16.409,13.302,29.712,29.712,29.712c8.1,0,15.438-3.245,20.798-8.501
			C436.698,527.009,433.275,527.64,429.703,527.64z"/>
		<path style="fill:#FFFFFF;" d="M428.672,480.122l7.591-2.566l1.016,3.101l-7.538,2.566l4.758,6.362l-2.62,2.032l-4.811-6.576
			l-4.651,6.576l-2.673-2.032l4.651-6.362l-7.538-2.566l1.016-3.101l7.591,2.566v-7.965h3.207V480.122z"/>
	</g>
</g>
</svg>
