<?xml version="1.0" encoding="iso-8859-1"?>
<!-- Generator: Adobe Illustrator 19.2.0, SVG Export Plug-In . SVG Version: 6.00 Build 0)  -->
<svg version="1.1" id="Livello_1" xmlns="http://www.w3.org/2000/svg" xmlns:xlink="http://www.w3.org/1999/xlink" x="0px" y="0px"
	 viewBox="0 0 1024 768" style="enable-background:new 0 0 1024 768;" xml:space="preserve">
<g>
	<circle style="fill:#FFFFFF;" cx="512" cy="384" r="169.125"/>
	<circle style="fill:#2C3E51;" cx="512" cy="384" r="156.342"/>
	<path style="fill:#FFFFFF;" d="M537.488,453.389c-46.802,0-84.742-37.94-84.742-84.742c0-23.7,9.74-45.117,25.423-60.496
		c-32.521,11.842-55.746,43.031-55.746,79.648c0,46.802,37.94,84.742,84.742,84.742c23.101,0,44.033-9.255,59.319-24.246
		C557.437,451.589,547.673,453.389,537.488,453.389z"/>
	<path style="fill:#FFFFFF;" d="M543.109,320.714l21.652-7.318l2.897,8.843l-21.499,7.318l13.57,18.144l-7.471,5.794l-13.722-18.755
		l-13.266,18.755l-7.623-5.794l13.265-18.144l-21.499-7.318l2.897-8.843l21.652,7.318v-22.718h9.148V320.714z"/>
</g>
</svg>
